#!OML:ASF H:\Male1\Project 1\Capture day 1\Session 1\Male1.ASF
:FULLY-SPECIFIED
:DEGREES
803
root 16.4029 14.8178 2.88996 181.643 11.3625 -177.592
lowerback 23.7507 -0.84597 2.33618
upperback 11.6369 1.90558 -2.30054
thorax -0.297159 2.18928 -4.25676
lowerneck -0.397408 10.9938 13.8229
upperneck -11.9885 14.188 -20.5267
head -0.806473 7.65548 -8.34182
rclavicle 5.96354e-015 -2.22639e-014
rhumerus 2.65183 1.36905 -56.022
rradius 126.077
rwrist -16.4959
rhand -35.5059 -2.91954
rfingers 7.12502
rthumb -8.63303 -32.723
lclavicle 5.96354e-015 -2.22639e-014
lhumerus -8.55928 11.4601 42.8084
lradius 118.513
lwrist -12.1971
lhand -34.9788 20.6196
lfingers 7.12502
lthumb -8.1243 50.4434
rfemur -24.8385 -0.772121 13.6541
rtibia 41.7123
rfoot -15.9201 -21.1957
rtoes -28.377
lfemur -18.3738 -19.0894 2.78634
ltibia 38.4751
lfoot -14.665 14.3389
ltoes -7.10422
804
root 16.1781 14.7816 2.87981 181.686 11.2904 -177.488
lowerback 23.6939 -0.796823 2.27833
upperback 11.6486 1.95932 -2.23695
thorax -0.256533 2.2124 -4.16376
lowerneck -0.432235 10.9433 13.845
upperneck -11.9645 14.1203 -20.4649
head -0.809704 7.61591 -8.32848
rclavicle -1.27222e-014 1.59028e-014
rhumerus 2.47578 1.23885 -55.9433
rradius 126.151
rwrist -16.4866
rhand -35.6072 -2.95658
rfingers 7.12502
rthumb -8.73078 -32.756
lclavicle -1.27222e-014 1.59028e-014
lhumerus -8.2818 11.2657 42.8385
lradius 118.61
lwrist -12.2344
lhand -34.9743 20.6056
lfingers 7.12502
lthumb -8.11995 50.4296
rfemur -24.888 -0.539649 12.7563
rtibia 41.4912
rfoot -15.3483 -21.4045
rtoes -28.8807
lfemur -17.9 -19.9895 2.4317
ltibia 37.5712
lfoot -15.691 14.3148
ltoes -11.473
805
root 15.9453 14.748 2.87289 181.757 11.2215 -177.325
lowerback 23.6881 -0.736927 2.24554
upperback 11.6649 2.03829 -2.14472
thorax -0.234152 2.24949 -4.06202
lowerneck -0.475892 10.879 13.9066
upperneck -11.9398 14.0336 -20.4202
head -0.809824 7.56613 -8.32748
rclavicle -1.98785e-014 -9.14409e-015
rhumerus 2.30292 0.990728 -55.8648
rradius 126.218
rwrist -16.4769
rhand -35.716 -2.97764
rfingers 7.12502
rthumb -8.83573 -32.7727
lclavicle -1.98785e-014 -9.14409e-015
lhumerus -7.96344 11.0767 42.9445
lradius 118.726
lwrist -12.3035
lhand -34.9747 20.5826
lfingers 7.12502
lthumb -8.12034 50.4066
rfemur -24.8929 -0.190983 11.889
rtibia 41.1256
rfoot -14.7123 -21.6842
rtoes -29.0571
lfemur -17.8176 -20.4519 1.94775
ltibia 37.2886
lfoot -17.1113 14.643
ltoes -14.9272
806
root 15.7064 14.7183 2.87017 181.847 11.1604 -177.132
lowerback 23.7505 -0.664758 2.18872
upperback 11.68 2.13375 -2.03466
thorax -0.246474 2.29393 -3.93436
lowerneck -0.520154 10.8125 14.0176
upperneck -11.921 13.9434 -20.3834
head -0.807724 7.5133 -8.33711
rclavicle -9.93923e-015 1.98785e-015
rhumerus 2.14459 0.650635 -55.8193
rradius 126.271
rwrist -16.4653
rhand -35.8061 -2.9939
rfingers 7.12502
rthumb -8.92268 -32.7852
lclavicle -9.93923e-015 1.98785e-015
lhumerus -7.59953 10.9078 43.106
lradius 118.84
lwrist -12.3801
lhand -34.9909 20.5845
lfingers 7.12502
lthumb -8.13599 50.4079
rfemur -24.8459 0.300721 11.0312
rtibia 40.6125
rfoot -14.089 -22.0062
rtoes -28.5655
lfemur -18.1531 -20.4866 1.37636
ltibia 37.6358
lfoot -18.55 15.082
ltoes -17.6802
807
root 15.463 14.6925 2.87174 181.946 11.1178 -176.915
lowerback 23.9001 -0.575401 2.11878
upperback 11.683 2.25277 -1.92465
thorax -0.313133 2.34936 -3.80962
lowerneck -0.5531 10.7387 14.1777
upperneck -11.9103 13.8438 -20.324
head -0.81012 7.45324 -8.34937
rclavicle 6.04305e-014 -1.59028e-014
rhumerus 1.97318 0.218523 -55.8257
rradius 126.315
rwrist -16.4777
rhand -35.8635 -3.0157
rfingers 7.12502
rthumb -8.97806 -32.8047
lclavicle 6.04305e-014 -1.59028e-014
lhumerus -7.15783 10.7312 43.2958
lradius 118.921
lwrist -12.4265
lhand -35.0472 20.6241
lfingers 7.12502
lthumb -8.19035 50.4453
rfemur -24.7535 0.938755 10.1916
rtibia 39.997
rfoot -13.6183 -22.3503
rtoes -27.1891
lfemur -18.8784 -20.2076 0.801063
ltibia 38.5568
lfoot -19.881 15.1966
ltoes -18.4781
808
root 15.2168 14.6688 2.87725 182.032 11.1162 -176.66
lowerback 24.1499 -0.466269 2.05195
upperback 11.6754 2.40336 -1.81772
thorax -0.437432 2.42115 -3.70334
lowerneck -0.563397 10.6539 14.3538
upperneck -11.918 13.7307 -20.2208
head -0.827055 7.385 -8.35416
rclavicle 2.82274e-014 2.78299e-015
rhumerus 1.79399 -0.284257 -55.8827
rradius 126.357
rwrist -16.5287
rhand -35.8669 -3.04365
rfingers 7.12502
rthumb -8.98141 -32.8325
lclavicle 2.82274e-014 2.78299e-015
lhumerus -6.62583 10.5422 43.5086
lradius 118.942
lwrist -12.4251
lhand -35.1508 20.7089
lfingers 7.12502
lthumb -8.29032 50.5262
rfemur -24.6376 1.71091 9.40739
rtibia 39.3737
rfoot -13.4536 -22.7364
rtoes -24.9721
lfemur -19.8951 -19.6785 0.265025
ltibia 39.9262
lfoot -20.8824 14.9467
ltoes -18.8467
809
root 14.9695 14.645 2.88617 182.077 11.1858 -176.381
lowerback 24.5048 -0.338803 1.99121
upperback 11.6657 2.58675 -1.72766
thorax -0.611064 2.51196 -3.63311
lowerneck -0.551568 10.564 14.5102
upperneck -11.9372 13.6122 -20.0661
head -0.858366 7.31325 -8.34237
rclavicle 2.70347e-014 -1.31198e-014
rhumerus 1.63009 -0.810716 -55.988
rradius 126.418
rwrist -16.6106
rhand -35.8073 -3.0981
rfingers 7.12502
rthumb -8.92382 -32.8894
lclavicle 2.70347e-014 -1.31198e-014
lhumerus -6.00465 10.3527 43.7413
lradius 118.878
lwrist -12.3842
lhand -35.2872 20.8494
lfingers 7.12502
lthumb -8.42191 50.6615
rfemur -24.542 2.59339 8.6941
rtibia 38.8761
rfoot -13.7437 -23.2452
rtoes -22.1338
lfemur -21.0555 -18.9589 -0.245606
ltibia 41.5781
lfoot -21.538 14.4328
ltoes -19.4201
810
root 14.7227 14.6199 2.89793 182.071 11.3428 -176.086
lowerback 24.9474 -0.196005 1.94525
upperback 11.6634 2.80191 -1.65653
thorax -0.814381 2.62267 -3.60563
lowerneck -0.525453 10.4765 14.6399
upperneck -11.9541 13.4984 -19.897
head -0.893852 7.24418 -8.32229
rclavicle 4.37326e-015 4.77083e-015
rhumerus 1.51557 -1.3194 -56.1092
rradius 126.516
rwrist -16.7189
rhand -35.6665 -3.20463
rfingers 7.12502
rthumb -8.78802 -33.0017
lclavicle 4.37326e-015 4.77083e-015
lhumerus -5.29631 10.1932 44.0194
lradius 118.709
lwrist -12.3319
lhand -35.433 21.0208
lfingers 7.12502
lthumb -8.56261 50.8272
rfemur -24.5401 3.51118 8.07485
rtibia 38.6602
rfoot -14.5466 -23.9535
rtoes -19.1947
lfemur -22.2231 -18.1145 -0.743082
ltibia 43.3458
lfoot -22.0924 13.6488
ltoes -19.4898
811
root 14.478 14.5926 2.91204 182.004 11.5656 -175.82
lowerback 25.4573 -0.0500708 1.90342
upperback 11.675 3.03122 -1.61933
thorax -1.03026 2.74549 -3.62643
lowerneck -0.504208 10.3999 14.7685
upperneck -11.9484 13.399 -19.7603
head -0.91659 7.1825 -8.30925
rclavicle -4.77083e-015 5.1684e-015
rhumerus 1.47404 -1.77878 -56.2306
rradius 126.669
rwrist -16.8234
rhand -35.4355 -3.37314
rfingers 7.12502
rthumb -8.56504 -33.1794
lclavicle -4.77083e-015 5.1684e-015
lhumerus -4.48886 10.0867 44.3561
lradius 118.427
lwrist -12.2949
lhand -35.5535 21.1837
lfingers 7.12502
lthumb -8.67895 50.9852
rfemur -24.7053 4.33327 7.53519
rtibia 38.8873
rfoot -15.7784 -24.8748
rtoes -16.7437
lfemur -23.3164 -17.1978 -1.30402
ltibia 45.1046
lfoot -22.5695 12.8447
ltoes -19.5357
812
root 14.2369 14.5637 2.92833 181.884 11.8065 -175.637
lowerback 26.0085 0.0877851 1.84417
upperback 11.6993 3.25296 -1.61793
thorax -1.24917 2.86835 -3.67908
lowerneck -0.499739 10.3325 14.8662
upperneck -11.9099 13.3106 -19.6621
head -0.923701 7.12739 -8.29969
rclavicle -2.18663e-014 1.63003e-014
rhumerus 1.5159 -2.16927 -56.3083
rradius 126.884
rwrist -16.9024
rhand -35.1493 -3.62135
rfingers 7.12502
rthumb -8.28891 -33.4387
lclavicle -2.18663e-014 1.63003e-014
lhumerus -3.58161 10.0303 44.7754
lradius 118.05
lwrist -12.2884
lhand -35.627 21.3169
lfingers 7.12502
lthumb -8.7499 51.1155
rfemur -25.1036 4.90662 7.05764
rtibia 39.6963
rfoot -17.2347 -25.8521
rtoes -15.3115
lfemur -24.3066 -16.3062 -1.99378
ltibia 46.7849
lfoot -23.0036 12.1972
ltoes -19.727
813
root 14.0005 14.5337 2.94672 181.743 12.0155 -175.558
lowerback 26.5631 0.212702 1.80086
upperback 11.7304 3.46463 -1.64905
thorax -1.45822 2.99002 -3.77661
lowerneck -0.530788 10.2522 14.9108
upperneck -11.8432 13.2028 -19.6042
head -0.920047 7.06507 -8.29221
rclavicle -1.07344e-014 -7.95139e-016
rhumerus 1.61626 -2.55177 -56.2862
rradius 127.156
rwrist -16.9527
rhand -34.8346 -3.9301
rfingers 7.12502
rthumb -7.98511 -33.7593
lclavicle -1.07344e-014 -7.95139e-016
lhumerus -2.54991 9.96871 45.3083
lradius 117.608
lwrist -12.3154
lhand -35.655 21.423
lfingers 7.12502
lthumb -8.77689 51.2205
rfemur -25.7964 5.08702 6.65949
rtibia 41.1832
rfoot -18.6308 -26.57
rtoes -15.0481
lfemur -25.259 -15.6021 -2.8077
ltibia 48.3729
lfoot -23.4037 11.7519
ltoes -19.7371
814
root 13.7697 14.502 2.96712 181.608 12.1617 -175.595
lowerback 27.0856 0.317551 1.75337
upperback 11.7681 3.64934 -1.6954
thorax -1.6442 3.09975 -3.88173
lowerneck -0.585256 10.1594 14.8765
upperneck -11.7878 13.0755 -19.5972
head -0.919719 6.99949 -8.28878
rclavicle 1.19271e-014 -3.57812e-015
rhumerus 1.79564 -2.93752 -56.14
rradius 127.453
rwrist -16.9735
rhand -34.5225 -4.25085
rfingers 7.12502
rthumb -7.68394 -34.0913
lclavicle 1.19271e-014 -3.57812e-015
lhumerus -1.45409 9.89022 45.9442
lradius 117.146
lwrist -12.3733
lhand -35.6565 21.5266
lfingers 7.12502
lthumb -8.77832 51.324
rfemur -26.8002 4.80814 6.36788
rtibia 43.3663
rfoot -19.6609 -26.762
rtoes -15.9458
lfemur -26.2353 -15.1713 -3.73579
ltibia 49.8865
lfoot -23.7487 11.499
ltoes -19.3661
